%TF.GenerationSoftware,KiCad,Pcbnew,7.0.5-0*%
%TF.CreationDate,2023-06-10T22:57:50-04:00*%
%TF.ProjectId,proto-power-rails,70726f74-6f2d-4706-9f77-65722d726169,0*%
%TF.SameCoordinates,Original*%
%TF.FileFunction,Copper,L1,Top*%
%TF.FilePolarity,Positive*%
%FSLAX46Y46*%
G04 Gerber Fmt 4.6, Leading zero omitted, Abs format (unit mm)*
G04 Created by KiCad (PCBNEW 7.0.5-0) date 2023-06-10 22:57:50*
%MOMM*%
%LPD*%
G01*
G04 APERTURE LIST*
%TA.AperFunction,ComponentPad*%
%ADD10R,1.700000X1.700000*%
%TD*%
%TA.AperFunction,ComponentPad*%
%ADD11O,1.700000X1.700000*%
%TD*%
%TA.AperFunction,ComponentPad*%
%ADD12C,5.000000*%
%TD*%
%TA.AperFunction,Conductor*%
%ADD13C,0.500000*%
%TD*%
G04 APERTURE END LIST*
D10*
%TO.P,GND,1*%
%TO.N,N/C*%
X137500000Y-102000000D03*
D11*
%TO.P,GND,2*%
X140040000Y-102000000D03*
%TO.P,GND,3*%
X142580000Y-102000000D03*
%TO.P,GND,4*%
X145120000Y-102000000D03*
%TO.P,GND,5*%
X147660000Y-102000000D03*
%TO.P,GND,6*%
X150200000Y-102000000D03*
%TO.P,GND,7*%
X152740000Y-102000000D03*
%TO.P,GND,8*%
X155280000Y-102000000D03*
%TO.P,GND,9*%
X157820000Y-102000000D03*
%TO.P,GND,10*%
X160360000Y-102000000D03*
%TO.P,GND,11*%
X162900000Y-102000000D03*
%TO.P,GND,12*%
X165440000Y-102000000D03*
%TD*%
D12*
%TO.P,REF\u002A\u002A,1*%
%TO.N,N/C*%
X131500000Y-106000000D03*
%TD*%
D10*
%TO.P,REG,1*%
%TO.N,N/C*%
X137500000Y-110000000D03*
D11*
%TO.P,REG,2*%
X140040000Y-110000000D03*
%TO.P,REG,3*%
X142580000Y-110000000D03*
%TO.P,REG,4*%
X145120000Y-110000000D03*
%TO.P,REG,5*%
X147660000Y-110000000D03*
%TO.P,REG,6*%
X150200000Y-110000000D03*
%TO.P,REG,7*%
X152740000Y-110000000D03*
%TO.P,REG,8*%
X155280000Y-110000000D03*
%TO.P,REG,9*%
X157820000Y-110000000D03*
%TO.P,REG,10*%
X160360000Y-110000000D03*
%TO.P,REG,11*%
X162900000Y-110000000D03*
%TO.P,REG,12*%
X165440000Y-110000000D03*
%TD*%
D10*
%TO.P,BAT,1*%
%TO.N,N/C*%
X137500000Y-106000000D03*
D11*
%TO.P,BAT,2*%
X140040000Y-106000000D03*
%TO.P,BAT,3*%
X142580000Y-106000000D03*
%TO.P,BAT,4*%
X145120000Y-106000000D03*
%TO.P,BAT,5*%
X147660000Y-106000000D03*
%TO.P,BAT,6*%
X150200000Y-106000000D03*
%TO.P,BAT,7*%
X152740000Y-106000000D03*
%TO.P,BAT,8*%
X155280000Y-106000000D03*
%TO.P,BAT,9*%
X157820000Y-106000000D03*
%TO.P,BAT,10*%
X160360000Y-106000000D03*
%TO.P,BAT,11*%
X162900000Y-106000000D03*
%TO.P,BAT,12*%
X165440000Y-106000000D03*
%TD*%
D13*
%TO.N,*%
X162900000Y-102000000D02*
X165440000Y-102000000D01*
X152740000Y-106000000D02*
X155280000Y-106000000D01*
X140040000Y-102000000D02*
X142580000Y-102000000D01*
X160360000Y-106000000D02*
X162900000Y-106000000D01*
X147660000Y-102000000D02*
X150200000Y-102000000D01*
X160360000Y-110000000D02*
X162900000Y-110000000D01*
X150200000Y-106000000D02*
X152740000Y-106000000D01*
X157820000Y-106000000D02*
X160360000Y-106000000D01*
X150200000Y-102000000D02*
X152740000Y-102000000D01*
X155280000Y-102000000D02*
X157820000Y-102000000D01*
X145120000Y-110000000D02*
X147660000Y-110000000D01*
X147660000Y-106000000D02*
X150200000Y-106000000D01*
X152740000Y-110000000D02*
X155280000Y-110000000D01*
X145120000Y-106000000D02*
X147660000Y-106000000D01*
X160360000Y-102000000D02*
X162900000Y-102000000D01*
X155280000Y-110000000D02*
X157820000Y-110000000D01*
X152740000Y-102000000D02*
X155280000Y-102000000D01*
X157820000Y-102000000D02*
X160360000Y-102000000D01*
X142580000Y-102000000D02*
X145120000Y-102000000D01*
X162900000Y-110000000D02*
X165440000Y-110000000D01*
X157820000Y-110000000D02*
X160360000Y-110000000D01*
X140040000Y-106000000D02*
X142580000Y-106000000D01*
X140040000Y-110000000D02*
X142580000Y-110000000D01*
X142580000Y-110000000D02*
X145120000Y-110000000D01*
X155280000Y-106000000D02*
X157820000Y-106000000D01*
X150200000Y-110000000D02*
X152740000Y-110000000D01*
X162900000Y-106000000D02*
X165440000Y-106000000D01*
X142580000Y-106000000D02*
X145120000Y-106000000D01*
X137500000Y-102000000D02*
X140040000Y-102000000D01*
X145120000Y-102000000D02*
X147660000Y-102000000D01*
X137500000Y-106000000D02*
X140040000Y-106000000D01*
X137500000Y-110000000D02*
X140040000Y-110000000D01*
X147660000Y-110000000D02*
X150200000Y-110000000D01*
%TD*%
M02*
