M48
; DRILL file {KiCad 7.0.5-0} date 2023 June 10, Saturday 22:57:56
; FORMAT={-:-/ absolute / inch / decimal}
; #@! TF.CreationDate,2023-06-10T22:57:56-04:00
; #@! TF.GenerationSoftware,Kicad,Pcbnew,7.0.5-0
; #@! TF.FileFunction,Plated,1,2,PTH
FMAT,2
INCH
; #@! TA.AperFunction,Plated,PTH,ComponentDrill
T1C0.0394
; #@! TA.AperFunction,Plated,PTH,ComponentDrill
T2C0.0984
%
G90
G05
T1
X5.4134Y-4.0157
X5.4134Y-4.1732
X5.4134Y-4.3307
X5.5134Y-4.0157
X5.5134Y-4.1732
X5.5134Y-4.3307
X5.6134Y-4.0157
X5.6134Y-4.1732
X5.6134Y-4.3307
X5.7134Y-4.0157
X5.7134Y-4.1732
X5.7134Y-4.3307
X5.8134Y-4.0157
X5.8134Y-4.1732
X5.8134Y-4.3307
X5.9134Y-4.0157
X5.9134Y-4.1732
X5.9134Y-4.3307
X6.0134Y-4.0157
X6.0134Y-4.1732
X6.0134Y-4.3307
X6.1134Y-4.0157
X6.1134Y-4.1732
X6.1134Y-4.3307
X6.2134Y-4.0157
X6.2134Y-4.1732
X6.2134Y-4.3307
X6.3134Y-4.0157
X6.3134Y-4.1732
X6.3134Y-4.3307
X6.4134Y-4.0157
X6.4134Y-4.1732
X6.4134Y-4.3307
X6.5134Y-4.0157
X6.5134Y-4.1732
X6.5134Y-4.3307
T2
X5.1772Y-4.1732
T0
M30
